<svg id="Layer_1" data-name="Layer 1" xmlns="http://www.w3.org/2000/svg" viewBox="0 0 720 72.1"><defs><style>.cls-1{fill:#e31837;}.cls-2{fill:#012172;}</style></defs><path class="cls-1" d="M664.6,69.1a3,3,0,0,1,6,0,3,3,0,0,1-3,3,3,3,0,0,1-3-3m.6,0a2.46,2.46,0,0,0,2.5,2.4,2.35,2.35,0,1,0-2.5-2.4"/><path class="cls-1" d="M669.1,70.8h-.6l-1-1.5h-.6v1.5h-.4V67.5H668a1.08,1.08,0,0,1,.8.2.67.67,0,0,1,.4.7c0,.6-.5.9-1.1.9l1,1.5Zm-1.6-1.9c.5,0,1.1.1,1.1-.5,0-.4-.4-.5-.8-.5h-.9v1Z"/><path class="cls-1" d="M653.3,72.1c21-18,50.5-35.5,66.7-41.8-2.5-1.6-6.4-3.9-10.8-6.4-20.9,6.9-45.3,22.2-67.1,39.5,3.7,2.8,7.6,5.7,11.2,8.7Z"/><path class="cls-2" d="M643.7,23.2c-3.1-1.5-6.5-2.9-9.1-4.1a225,225,0,0,0-31.2,19.1c2.8,1.5,5.8,3.3,9,5.1C622.4,35.9,632.5,28.9,643.7,23.2Z"/><path class="cls-1" d="M662.4,14.6c-3.8-2.1-17-7-26.1-9.1-2.7,1-6.5,2.5-9.1,3.6,3.3.9,15.6,4.2,26.1,9.5C656,17.3,659.8,15.7,662.4,14.6Z"/><path class="cls-2" d="M617.7,13.3A276.85,276.85,0,0,0,587,30.4c2.4,1.1,4.8,2,8.1,3.6,14.8-10,26.4-16.1,31-18.1-3.3-1.2-6.4-2-8.4-2.6Z"/><path class="cls-1" d="M671.2,11.5c2.7-.9,5.8-1.7,8.5-2.5a190.35,190.35,0,0,0-26.4-9c-1.4.4-5.6,1.5-8.5,2.4A180.24,180.24,0,0,1,671.2,11.5ZM621.9,49.1c3.2,1.9,6.6,4.5,9.9,6.7,21.9-17,43.5-30.1,67.2-37.5-3.3-1.7-6.2-3.2-9.9-5C674.9,16.9,650.6,26.6,621.9,49.1Z"/><path class="cls-2" d="M0,65.9H16c8.1,0,11.9-4.2,11.9-10.1,0-4.8-2.5-8-7.7-9,4.6-1.1,6.7-3.9,6.7-8,0-5.2-3.8-9.4-11.9-9.4H.1V65.9ZM13.9,50.4c3,0,5.1,1.5,5.1,4.5,0,3.2-2,4.5-5.1,4.5H8.7V50.3h5.2Zm-1-14.6c3,0,5.1,1.3,5.1,4.3s-2,4.3-5.1,4.3H8.7V35.8Zm47.3-6.5h-9L37.5,65.9h9.1l2.5-7.6H62.3l2.5,7.6H74L60.2,29.3Zm-4.5,8.8L60,51.6H51.2Zm63.9-8.8h-8.3V53.8L95.7,29.3H86.4V65.9h8.3V41.5l15.6,24.4h9.3Zm38.3,36.6-12-18.6V65.9H137V29.3h8.9V46.9l11.4-17.6h9.9l-12,17.6,13.1,19Zm41.9-18.3c0,7.3,4.4,11.8,10.1,11.8S220,54.9,220,47.6s-4.4-11.8-10.1-11.8S199.8,40.3,199.8,47.6Zm-9.4,0c.1-10.7,7.6-19.1,19.5-19.1s19.4,8.4,19.5,19.1c-.1,10.7-7.6,19.1-19.5,19.1S190.5,58.3,190.4,47.6Zm51.2,18.3h8.9V51.5h11.6v-7H250.5V36.3h14l1.6-7H241.6Zm66-36.6h-9L284.9,65.9H294l2.5-7.6h13.2l2.5,7.6h9.2Zm-4.5,8.8,4.3,13.5h-8.8Zm71.1-8.8H363.8l-9.5,19.8-9.5-19.8H334.4V65.9h8V41.4l11.8,24.5L366,41.4V65.9h8.3l-.1-36.6Zm17.3,36.6h25v-7H400.4V50.7h12.7V43.9H400.4V36.3h14.7l1.6-7H391.5V65.9Zm58.9,0h9.7L451,50.4c5-1.4,7.4-4.9,7.4-10,0-6.6-4-11-13-11H431.3V66H440V51.6h2.4l8,14.3Zm-6.7-29.8c3.7,0,5.6,1.6,5.6,4.7s-1.9,4.7-5.6,4.7h-3.8V36.1Zm29.7,29.8h8.9V29.4h-8.9Zm52.7-9.8a15.69,15.69,0,0,1-9.5,3.2c-6.8,0-11.6-4.7-11.6-11.7s4.7-11.7,11.3-11.7a15.16,15.16,0,0,1,9.3,3.2V30.8a20.75,20.75,0,0,0-10.4-2.4c-12.1,0-19.7,8.4-19.8,19.1.1,10.8,7.5,19.1,19.8,19.1A22.32,22.32,0,0,0,526,64.2V56.1Zm32.6-26.8h-9L536,65.9h9.1l2.5-7.6h13.2l2.5,7.6h9.2Zm-4.5,8.8,4.3,13.5h-8.8l4.5-13.5Z"/></svg>